<svg xmlns="http://www.w3.org/2000/svg" viewBox="0 0 512 512" xml:space="preserve"><path style="fill:#c0874a" d="m511.401 173.663-8.888 5.606-44.269 27.797-189.638 119.007-2.393 1.579-.514.316-9.656 6.08-.342.159-7.948-4.975-1.454-.948-179.64-112.768-12.22-7.66L.598 174.057 0 173.663l54.439-34.194L249.548 16.988h12.306l196.39 123.27 6.496 4.107z"/><path style="fill:#69b25f" d="M467.859 16.065v383.862c0 8.807-7.88 15.985-17.641 15.985H62.29c-9.671 0-17.551-7.178-17.551-15.985V16.065C44.739 7.176 52.619 0 62.29 0h387.928c9.76 0 17.641 7.176 17.641 16.065z"/><path style="fill:#a2cc86" d="M110.787 75.101h190.508v25.378H110.787z"/><path style="fill:#53a654" d="M110.787 71.093h190.508v25.378H110.787z"/><path style="fill:#a2cc86" d="M110.787 214.682h289.501v25.378H110.787z"/><path style="fill:#53a654" d="M110.787 210.675h289.501v25.378H110.787z"/><path style="fill:#a2cc86" d="M110.787 284.473h289.501v25.378H110.787z"/><path style="fill:#53a654" d="M110.787 280.466h289.501v25.378H110.787z"/><path style="fill:#a2cc86" d="M110.787 144.891h289.501v25.378H110.787z"/><path style="fill:#53a654" d="M110.787 140.884h289.501v25.378H110.787z"/><path style="fill:#f0ba7d" d="m256.299 322.118-2.991 1.763-57.858 33.781-7.094 4.185L12.392 464.583l-11.794 6.83V172.824l70.848 41.345 175.196 102.295 1.367.808 8.034 4.699z"/><g><path style="fill:#e5a864" d="M510.236 167.293c.97-.567 1.764-.111 1.764 1.013v294.576c0 1.124-.019 2.027-.043 2.006s-.139-.103-.257-.184a17.202 17.202 0 0 0-.385-.257.804.804 0 0 0-.214-.11c-.024 0-.837-.464-1.807-1.03L265.498 320.993c-.97-.566-2.556-1.497-3.524-2.068l-.839-.495a895.743 895.743 0 0 1-3.298-1.956c-.846-.505-.743-1.379.229-1.944l6.209-3.604 1.895-1.099.257-.147c.071-.04.923-.535 1.895-1.1l5.44-3.161c.972-.564 2.56-1.49 3.531-2.057l232.943-136.069z"/></g><circle style="opacity:.68;fill:#eef3ca" cx="377.142" cy="75.101" r="38.186"/><path style="fill:#c0874a" d="M512 425.251v45.808h-.513l-7.35.342H27.689l-.341-7.094c8.632-5.896 20.082-13.845 27.518-18.887l1.025-.684 24.956-17.178 38.97-26.92 11.28-7.777 118.365-81.615 7.947-5.556c1.88-1.195 4.017-2.222 6.324-2.904 2.735-.941 5.726-1.539 8.717-1.795 1.025-.086 1.965-.171 2.991-.086 1.025-.171 2.052-.171 3.077-.171a34.91 34.91 0 0 1 7.948.683c2.734.513 5.213 1.369 7.435 2.564l89.735 49.91 44.354 24.697 11.538 6.41 41.79 23.245 27.518 15.298c.77.428 1.624.855 2.479 1.368.172.086.428.257.685.342z"/><path style="fill:#ecb168" d="M512 441.404v29.997H.598v-29.997c8.974-5.471 20.768-12.905 28.459-17.52l1.025-.684 25.724-15.98 40.252-24.955 11.623-7.264 122.125-75.805 8.204-5.127c4.273-2.564 9.828-3.846 15.298-3.932a17.37 17.37 0 0 1 2.991 0 18.38 18.38 0 0 1 3.077 0c2.393 0 4.701.257 6.923.769 3.077.599 5.896 1.71 8.29 3.163l11.879 7.349 75.377 46.834 43.073 26.75 11.196 7.007 40.68 25.212 26.748 16.665c.77.428 1.539.854 2.393 1.367 5.47 3.505 12.477 7.864 19.058 11.88a174.72 174.72 0 0 0 7.007 4.271z"/><path style="opacity:.2;fill:#badb9e" d="M467.816 16.066v4.273c0-8.887-7.863-16.066-17.605-16.066H62.301c-9.656 0-17.604 7.178-17.604 16.066v-4.273C44.696 7.178 52.645 0 62.301 0h387.911c9.741 0 17.604 7.178 17.604 16.066z"/></svg>